# xmcd CD database file
#
# Track frame offsets:
#	150
#	12065
#	21900
#	34102
#	44932
#	55497
#	67742
#	80522
#	91815
#	103517
#	115147
#	126072
#	135307
#	146270
#	157310
#	169182
#	185442
#	195057
#	206215
#	216165
#	226860
#	237002
#	247665
#	261657
#
# Disc length: 3671 seconds
#
# Revision: 0
# Processed by: cddbd v1.4PL0 Copyright (c) Steve Scherf et al.
# Submitted via: CdAid 2001.05.15.01
#
DISCID=460e5518
DTITLE=Pittsburgh's Favorite Oldies - Various Artists - Pittsburgh's Favorite Oldies - "At The Hop IV"
DYEAR=1900
DGENRE=
TTITLE0=Any Way You Wanta - Harvey Fuqua
TTITLE1=W-P-L-J 4 Dueces
TTITLE2=Oo-Mi-Liddi - J.J. Jackson
TTITLE3=Ain't Nothin But A House Party - Show Stoppers
TTITLE4=Abigail - Embers
TTITLE5=Night Time - Pete Antel
TTITLE6=Each Night - Rochell and The Candles
TTITLE7=Image Of A Girl - Safaris
TTITLE8=Lundee Dundee - Versatiles
TTITLE9=No One Else Will Do - Sunny and The Sunliners
TTITLE10=Buzzzzzz - Jimmy Gordon
TTITLE11=Carioca - Aqua-Nites
TTITLE12=The Girl Next Door - Citations
TTITLE13=The Sun Will Shine Again - Adelphis
TTITLE14=The Beating Of My Heart - Petites
TTITLE15=Magic Moment - Neons
TTITLE16=Fat Girls - Neons
TTITLE17=Flip Your Daddy - Cocoas
TTITLE18=Vowels Of Love - Poets
TTITLE19=Chopsticks - LaSalles
TTITLE20=Lover Don't You Weep - Aqua-Nites
TTITLE21=Whisper In Your Ear - Versatiles
TTITLE22=How I Love You - Chuck Alaimo
TTITLE23=Soft Shadows - Orchids
EXTD=Itzy 5006
EXTT0=
EXTT1=
EXTT2=
EXTT3=
EXTT4=
EXTT5=
EXTT6=
EXTT7=
EXTT8=
EXTT9=
EXTT10=
EXTT11=
EXTT12=
EXTT13=
EXTT14=
EXTT15=
EXTT16=
EXTT17=
EXTT18=
EXTT19=
EXTT20=
EXTT21=
EXTT22=
EXTT23=
PLAYORDER=
